<?xml version="1.0" encoding="UTF-8"?>
<svg width="414px" height="85px" viewBox="0 0 414 85" version="1.1" xmlns="http://www.w3.org/2000/svg" xmlns:xlink="http://www.w3.org/1999/xlink">
    <!-- Generator: Sketch 54.1 (76490) - https://sketchapp.com -->
    <title>PieterWolmarans</title>
    <desc>Created with Sketch.</desc>
    <g id="Page-1" stroke="none" stroke-width="1" fill="currentColor" fill-rule="evenodd">
        <path d="M22.1,42 C22.433335,44.466679 22.7833315,47.066653 23.15,49.8 C23.5166685,52.533347 23.833332,55.166654 24.1,57.7 C24.366668,60.233346 24.533333,62.533323 24.6,64.6 C24.666667,66.666677 24.600001,68.2499945 24.4,69.35 C24.199999,70.4500055 23.800003,70.9166675 23.2,70.75 C22.599997,70.5833325 21.733339,69.533343 20.6,67.6 C20.6,62.999977 20.3833355,58.6500205 19.95,54.55 C19.5166645,50.4499795 18.96667,46.333354 18.3,42.2 C16.766659,42.2 15.266674,41.9500025 13.8,41.45 C12.333326,40.9499975 11.000006,40.3833365 9.8,39.75 C8.599994,39.1166635 7.6500035,38.4500035 6.95,37.75 C6.2499965,37.0499965 5.9,36.466669 5.9,36 C6.366669,36.133334 7.099995,36.299999 8.1,36.5 C9.100005,36.700001 10.1499945,36.8833325 11.25,37.05 C12.3500055,37.2166675 13.4499945,37.3499995 14.55,37.45 C15.6500055,37.5500005 16.53333,37.6 17.2,37.6 C16.799998,34.599985 16.4166685,31.900012 16.05,29.5 C15.6833315,27.099988 15.3166685,24.766678 14.95,22.5 C14.5833315,20.233322 14.2166685,17.9166785 13.85,15.55 C13.4833315,13.1833215 13.133335,10.533348 12.8,7.6 C10.733323,6.733329 8.6500105,5.933337 6.55,5.2 C4.4499895,4.466663 2.433343,3.633338 0.5,2.7 C0.366666,2.299998 0.266667,2.0166675 0.2,1.85 C0.133333,1.6833325 0.1166665,1.533334 0.15,1.4 C0.1833335,1.266666 0.2833325,1.1166675 0.45,0.95 C0.6166675,0.7833325 0.899998,0.533335 1.3,0.2 C1.833336,0.066666 3.0833235,0.2833305 5.05,0.85 C7.0166765,1.4166695 9.3499865,2.2166615 12.05,3.25 C14.7500135,4.2833385 17.6499845,5.5166595 20.75,6.95 C23.8500155,8.3833405 26.8499855,9.8499925 29.75,11.35 C32.6500145,12.8500075 35.2499885,14.3499925 37.55,15.85 C39.8500115,17.3500075 41.533328,18.733327 42.6,20 C43.600005,20.800004 44.2833315,21.733328 44.65,22.8 C45.0166685,23.866672 45.1166675,24.966661 44.95,26.1 C44.7833325,27.233339 44.36667,28.366661 43.7,29.5 C43.03333,30.633339 42.200005,31.699995 41.2,32.7 C40.199995,33.633338 39.0166735,34.6166615 37.65,35.65 C36.2833265,36.6833385 34.800008,37.6499955 33.2,38.55 C31.599992,39.4500045 29.866676,40.2166635 28,40.85 C26.133324,41.4833365 24.166677,41.866666 22.1,42 Z M20.8,37.4 C23.933349,37.4 26.7166545,37.06667 29.15,36.4 C31.5833455,35.73333 33.633325,34.800006 35.3,33.6 C36.966675,32.399994 38.1833295,31.000008 38.95,29.4 C39.7166705,27.799992 39.966668,26.133342 39.7,24.4 C39.566666,23.06666 38.666675,21.7166735 37,20.35 C35.333325,18.9833265 33.3166785,17.6500065 30.95,16.35 C28.5833215,15.0499935 26.0833465,13.7833395 23.45,12.55 C20.8166535,11.3166605 18.466677,10.133339 16.4,9 C16.533334,10.400007 16.7166655,11.9166585 16.95,13.55 C17.1833345,15.1833415 17.466665,17.0833225 17.8,19.25 C18.133335,21.4166775 18.5499975,23.966652 19.05,26.9 C19.5500025,29.833348 20.13333,33.333313 20.8,37.4 Z M41.4,26 C40.266661,26.466669 39.4166695,27.066663 38.85,27.8 C38.2833305,28.533337 37.866668,29.266663 37.6,30 C37.800001,31.133339 38.0499985,31.6833335 38.35,31.65 C38.6500015,31.6166665 38.999998,31.633333 39.4,31.7 C40.133337,31.566666 40.599999,31.2833355 40.8,30.85 C41.000001,30.4166645 41.466663,29.900003 42.2,29.3 C42.600002,28.833331 42.733334,28.133338 42.6,27.2 C42.466666,26.266662 42.06667,25.866666 41.4,26 Z M41.7,39 C42.033335,42.200016 42.266666,45.7166475 42.4,49.55 C42.533334,53.3833525 42.766665,57.399979 43.1,61.6 C43.366668,63.733344 43.633332,65.399994 43.9,66.6 C44.166668,67.800006 44.366666,68.933328 44.5,70 C43.433328,70.200001 42.600003,70.1833345 42,69.95 C41.399997,69.7166655 40.833336,69.433335 40.3,69.1 C40.166666,68.033328 40.0166675,66.266679 39.85,63.8 C39.6833325,61.333321 39.5166675,58.6500145 39.35,55.75 C39.1833325,52.8499855 39.0166675,50.033347 38.85,47.3 C38.6833325,44.566653 38.533334,42.400008 38.4,40.8 C38.666668,40.666666 38.8833325,40.466668 39.05,40.2 C39.2166675,39.933332 39.399999,39.700001 39.6,39.5 C39.800001,39.299999 40.066665,39.133334 40.4,39 C40.733335,38.866666 41.166664,38.866666 41.7,39 Z M57.3,41.7 C57.500001,41.633333 58.066662,41.4500015 59,41.15 C59.933338,40.8499985 60.699997,40.799999 61.3,41 C63.233343,40.933333 64.7166615,41.433328 65.75,42.5 C66.7833385,43.566672 66.866671,45.633318 66,48.7 C64.733327,52.100017 63.0500105,54.933322 60.95,57.2 C58.8499895,59.466678 56.366681,61.633323 53.5,63.7 C54.16667,65.433342 55.16666,66.399999 56.5,66.6 C57.83334,66.800001 59.233326,66.5833365 60.7,65.95 C62.166674,65.3166635 63.599993,64.466672 65,63.4 C66.400007,62.333328 67.533329,61.400004 68.4,60.6 C69.800007,59.399994 70.9166625,58.3833375 71.75,57.55 C72.5833375,56.7166625 73.466662,55.700006 74.4,54.5 C74.600001,54.366666 74.7166665,54.3833325 74.75,54.55 C74.7833335,54.7166675 74.766667,54.966665 74.7,55.3 C74.633333,55.633335 74.533334,56.099997 74.4,56.7 C74.199999,57.166669 74.000001,57.5833315 73.8,57.95 C73.599999,58.3166685 73.3166685,58.7166645 72.95,59.15 C72.5833315,59.5833355 72.100003,60.099997 71.5,60.7 C70.899997,61.300003 70.166671,62.099995 69.3,63.1 C68.299995,64.033338 67.333338,64.9499955 66.4,65.85 C65.466662,66.7500045 64.4833385,67.53333 63.45,68.2 C62.4166615,68.86667 61.2833395,69.333332 60.05,69.6 C58.8166605,69.866668 57.400008,69.866668 55.8,69.6 C54.46666,69.133331 53.400004,68.633336 52.6,68.1 C51.799996,67.566664 51.1833355,67.0166695 50.75,66.45 C50.3166645,65.8833305 50.000001,65.366669 49.8,64.9 C49.599999,64.433331 49.466667,64.033335 49.4,63.7 C49.066665,62.36666 48.933333,60.566678 49,58.3 C49.066667,56.033322 49.733327,53.100018 51,49.5 C51.866671,47.633324 52.799995,46.0500065 53.8,44.75 C54.800005,43.4499935 55.96666,42.433337 57.3,41.7 Z M52.9,59.4 C53.766671,58.933331 54.7833275,58.2833375 55.95,57.45 C57.1166725,56.6166625 58.2166615,55.6500055 59.25,54.55 C60.2833385,53.4499945 61.1833295,52.23334 61.95,50.9 C62.7166705,49.56666 63.133333,48.166674 63.2,46.7 C63.400001,45.699995 63.366668,45.000002 63.1,44.6 C62.966666,44.399999 62.833334,44.3 62.7,44.3 C61.566661,43.766664 60.433339,43.933329 59.3,44.8 C58.166661,45.666671 57.133338,46.899992 56.2,48.5 C55.266662,50.100008 54.4833365,51.8833235 53.85,53.85 C53.2166635,55.8166765 52.9,57.666658 52.9,59.4 Z M89.2,40.2 C92.066681,39.999999 94.8833195,39.7833345 97.65,39.55 C100.416681,39.3166655 103.299985,39.066668 106.3,38.8 C106.96667,38.866667 107.399999,39.2166635 107.6,39.85 C107.800001,40.4833365 107.533337,40.866666 106.8,41 C104.333321,41.266668 101.500016,41.633331 98.3,42.1 C95.099984,42.566669 92.066681,43.166663 89.2,43.9 C89.333334,45.966677 89.4,48.0833225 89.4,50.25 C89.4,52.4166775 89.4499995,54.5499895 89.55,56.65 C89.6500005,58.7500105 89.8499985,60.7833235 90.15,62.75 C90.4500015,64.7166765 90.93333,66.533325 91.6,68.2 C92.533338,69.333339 93.466662,69.999999 94.4,70.2 C95.333338,70.400001 96.2166625,70.3500015 97.05,70.05 C97.8833375,69.7499985 98.6499965,69.2833365 99.35,68.65 C100.050004,68.0166635 100.666664,67.400003 101.2,66.8 C101.666669,66.333331 102.049999,66.333331 102.35,66.8 C102.650002,67.266669 102.366671,67.966662 101.5,68.9 C101.099998,69.366669 100.600003,69.866664 100,70.4 C99.399997,70.933336 98.6833375,71.3833315 97.85,71.75 C97.0166625,72.1166685 96.0833385,72.3499995 95.05,72.45 C94.0166615,72.5500005 92.900006,72.433335 91.7,72.1 C90.166659,71.699998 89.033337,70.466677 88.3,68.4 C87.566663,66.333323 87.0166685,63.9166805 86.65,61.15 C86.2833315,58.3833195 86.033334,55.500015 85.9,52.5 C85.766666,49.499985 85.600001,46.800012 85.4,44.4 C82.466652,44.666668 80.3166735,44.899999 78.95,45.1 C77.5833265,45.300001 76.600003,45.433333 76,45.5 C75.399997,45.566667 75.000001,45.533334 74.8,45.4 C74.599999,45.266666 74.233336,44.966669 73.7,44.5 C73.766667,44.166665 73.7833335,43.8500015 73.75,43.55 C73.7166665,43.2499985 73.7166665,43.000001 73.75,42.8 C73.7833335,42.599999 73.9166655,42.400001 74.15,42.2 C74.3833345,41.999999 74.83333,41.833334 75.5,41.7 C76.500005,41.433332 77.9499905,41.2833335 79.85,41.25 C81.7500095,41.2166665 83.599991,41.066668 85.4,40.8 C85.333333,38.666656 85.266667,37.000006 85.2,35.8 C85.133333,34.599994 85.066667,33.5500045 85,32.65 C84.933333,31.7499955 84.8833335,30.866671 84.85,30 C84.8166665,29.133329 84.8,28.000007 84.8,26.6 C84.8,26.266665 84.9833315,26.0166675 85.35,25.85 C85.7166685,25.6833325 86.133331,25.5833335 86.6,25.55 C87.066669,25.5166665 87.499998,25.5833325 87.9,25.75 C88.300002,25.9166675 88.566666,26.166665 88.7,26.5 C88.900001,27.100003 89.033333,27.9833275 89.1,29.15 C89.166667,30.3166725 89.2166665,31.5499935 89.25,32.85 C89.2833335,34.1500065 89.3,35.46666 89.3,36.8 C89.3,38.13334 89.266667,39.266662 89.2,40.2 Z M110.3,41.7 C110.500001,41.633333 111.066662,41.4500015 112,41.15 C112.933338,40.8499985 113.699997,40.799999 114.3,41 C116.233343,40.933333 117.716662,41.433328 118.75,42.5 C119.783338,43.566672 119.866671,45.633318 119,48.7 C117.733327,52.100017 116.050011,54.933322 113.95,57.2 C111.84999,59.466678 109.366681,61.633323 106.5,63.7 C107.16667,65.433342 108.16666,66.399999 109.5,66.6 C110.83334,66.800001 112.233326,66.5833365 113.7,65.95 C115.166674,65.3166635 116.599993,64.466672 118,63.4 C119.400007,62.333328 120.533329,61.400004 121.4,60.6 C122.800007,59.399994 123.916663,58.3833375 124.75,57.55 C125.583338,56.7166625 126.466662,55.700006 127.4,54.5 C127.600001,54.366666 127.716667,54.3833325 127.75,54.55 C127.783334,54.7166675 127.766667,54.966665 127.7,55.3 C127.633333,55.633335 127.533334,56.099997 127.4,56.7 C127.199999,57.166669 127.000001,57.5833315 126.8,57.95 C126.599999,58.3166685 126.316668,58.7166645 125.95,59.15 C125.583332,59.5833355 125.100003,60.099997 124.5,60.7 C123.899997,61.300003 123.166671,62.099995 122.3,63.1 C121.299995,64.033338 120.333338,64.9499955 119.4,65.85 C118.466662,66.7500045 117.483338,67.53333 116.45,68.2 C115.416662,68.86667 114.283339,69.333332 113.05,69.6 C111.81666,69.866668 110.400008,69.866668 108.8,69.6 C107.46666,69.133331 106.400004,68.633336 105.6,68.1 C104.799996,67.566664 104.183335,67.0166695 103.75,66.45 C103.316664,65.8833305 103.000001,65.366669 102.8,64.9 C102.599999,64.433331 102.466667,64.033335 102.4,63.7 C102.066665,62.36666 101.933333,60.566678 102,58.3 C102.066667,56.033322 102.733327,53.100018 104,49.5 C104.866671,47.633324 105.799995,46.0500065 106.8,44.75 C107.800005,43.4499935 108.96666,42.433337 110.3,41.7 Z M105.9,59.4 C106.766671,58.933331 107.783327,58.2833375 108.95,57.45 C110.116672,56.6166625 111.216661,55.6500055 112.25,54.55 C113.283339,53.4499945 114.18333,52.23334 114.95,50.9 C115.716671,49.56666 116.133333,48.166674 116.2,46.7 C116.400001,45.699995 116.366668,45.000002 116.1,44.6 C115.966666,44.399999 115.833334,44.3 115.7,44.3 C114.566661,43.766664 113.433339,43.933329 112.3,44.8 C111.166661,45.666671 110.133338,46.899992 109.2,48.5 C108.266662,50.100008 107.483337,51.8833235 106.85,53.85 C106.216663,55.8166765 105.9,57.666658 105.9,59.4 Z M129,38.4 C128.933333,37.799997 129.249997,37.6499985 129.95,37.95 C130.650003,38.2500015 131.366663,38.566665 132.1,38.9 C132.366668,40.433341 132.566666,41.6499955 132.7,42.55 C132.833334,43.4500045 132.933333,44.299996 133,45.1 C133.066667,45.900004 133.133333,46.766662 133.2,47.7 C133.266667,48.633338 133.366666,49.866659 133.5,51.4 C134.100003,49.866659 134.833329,48.4500065 135.7,47.15 C136.566671,45.8499935 137.683327,44.733338 139.05,43.8 C140.416674,42.866662 142.049991,42.1833355 143.95,41.75 C145.850009,41.3166645 148.13332,41.166666 150.8,41.3 C150.8,41.833336 150.616669,42.2833315 150.25,42.65 C149.883331,43.0166685 149.03334,43.299999 147.7,43.5 C145.766657,43.833335 144.083341,44.4833285 142.65,45.45 C141.216659,46.4166715 139.983339,47.533327 138.95,48.8 C137.916661,50.066673 137.083336,51.4166595 136.45,52.85 C135.816664,54.2833405 135.300002,55.599994 134.9,56.8 C134.833333,57.400003 134.75,58.2499945 134.65,59.35 C134.55,60.4500055 134.483334,61.6166605 134.45,62.85 C134.416667,64.0833395 134.383333,65.2833275 134.35,66.45 C134.316666,67.6166725 134.366666,68.53333 134.5,69.2 C134.566667,69.533335 134.416669,69.7833325 134.05,69.95 C133.683332,70.1166675 133.266669,70.233333 132.8,70.3 C132.333331,70.366667 131.900002,70.333334 131.5,70.2 C131.099998,70.066666 130.9,69.833335 130.9,69.5 C131.033334,62.633299 130.850003,56.7166915 130.35,51.75 C129.849998,46.7833085 129.400002,42.333353 129,38.4 Z M202.8,63.9 C202.666666,64.233335 202.433335,64.566665 202.1,64.9 C201.766665,65.233335 201.400002,65.4499995 201,65.55 C200.599998,65.6500005 200.200002,65.5833345 199.8,65.35 C199.399998,65.1166655 199.033335,64.633337 198.7,63.9 C197.36666,61.499988 196.216672,59.2833435 195.25,57.25 C194.283329,55.2166565 193.400004,53.0833445 192.6,50.85 C191.799996,48.6166555 191.000004,46.1500135 190.2,43.45 C189.399996,40.7499865 188.466672,37.533352 187.4,33.8 C186.399995,36.800015 185.350006,39.96665 184.25,43.3 C183.149995,46.63335 182.016673,49.8833175 180.85,53.05 C179.683328,56.2166825 178.500006,59.166653 177.3,61.9 C176.099994,64.633347 174.933339,66.866658 173.8,68.6 C173.066663,69.600005 172.450003,70.266665 171.95,70.6 C171.449998,70.933335 171.016669,71.0500005 170.65,70.95 C170.283332,70.8499995 169.983335,70.600002 169.75,70.2 C169.516666,69.799998 169.333334,69.433335 169.2,69.1 C168.599997,63.299971 168.083336,57.73336 167.65,52.4 C167.216665,47.06664 166.800002,42.300021 166.4,38.1 C165.999998,33.899979 165.600002,30.4166805 165.2,27.65 C164.799998,24.8833195 164.366669,23.200003 163.9,22.6 C163.766666,21.399994 164.183329,20.500003 165.15,19.9 C166.116672,19.299997 167.066662,19.166665 168,19.5 C168.266668,19.566667 168.533332,20.666656 168.8,22.8 C169.066668,24.933344 169.316666,27.5833175 169.55,30.75 C169.783335,33.9166825 170.016666,37.366648 170.25,41.1 C170.483335,44.833352 170.716666,48.2833175 170.95,51.45 C171.183335,54.6166825 171.383333,57.2499895 171.55,59.35 C171.716668,61.4500105 171.899999,62.5 172.1,62.5 C172.300001,62.966669 172.716664,62.700005 173.35,61.7 C173.983337,60.699995 174.716663,59.2166765 175.55,57.25 C176.383338,55.2833235 177.283329,52.9500135 178.25,50.25 C179.216672,47.5499865 180.183329,44.766681 181.15,41.9 C182.116672,39.033319 183.033329,36.1833475 183.9,33.35 C184.766671,30.5166525 185.53333,27.966678 186.2,25.7 C186.533335,24.966663 186.833332,24.466668 187.1,24.2 C187.366668,23.933332 187.933329,23.899999 188.8,24.1 C189.266669,24.300001 189.633332,24.799996 189.9,25.6 C190.166668,26.400004 190.366666,27.399994 190.5,28.6 C190.633334,29.800006 190.799999,31.133326 191,32.6 C191.200001,34.066674 191.499998,35.533326 191.9,37 C192.233335,38.266673 192.666664,39.8499905 193.2,41.75 C193.733336,43.6500095 194.316664,45.59999 194.95,47.6 C195.583337,49.60001 196.249997,51.5166575 196.95,53.35 C197.650004,55.1833425 198.399996,56.633328 199.2,57.7 C199.600002,58.033335 200.083331,57.3500085 200.65,55.65 C201.21667,53.9499915 201.799997,51.666681 202.4,48.8 C203.000003,45.933319 203.583331,42.700018 204.15,39.1 C204.71667,35.499982 205.199998,32.000017 205.6,28.6 C206.000002,25.199983 206.283333,22.1166805 206.45,19.35 C206.616668,16.5833195 206.600001,14.566673 206.4,13.3 C206.4,12.499996 206.45,11.933335 206.55,11.6 C206.650001,11.266665 206.733333,11.0166675 206.8,10.85 C206.866667,10.6833325 206.9,10.533334 206.9,10.4 C206.9,10.266666 206.833334,10.000002 206.7,9.6 C206.566666,9.333332 206.616666,9.0166685 206.85,8.65 C207.083335,8.2833315 207.383332,7.966668 207.75,7.7 C208.116669,7.433332 208.516665,7.266667 208.95,7.2 C209.383336,7.133333 209.766665,7.266665 210.1,7.6 C210.300001,7.866668 210.4,8.4499955 210.4,9.35 C210.4,10.2500045 210.350001,11.399993 210.25,12.8 C210.15,14.200007 210.016668,15.833324 209.85,17.7 C209.683333,19.566676 209.566667,21.599989 209.5,23.8 C209.033331,27.200017 208.550003,30.699982 208.05,34.3 C207.549998,37.900018 207.033336,41.4499825 206.5,44.95 C205.966664,48.4500175 205.383337,51.833317 204.75,55.1 C204.116664,58.366683 203.46667,61.299987 202.8,63.9 Z M210.3,40 C211.566673,40.066667 212.966659,40.2499985 214.5,40.55 C216.033341,40.8500015 217.533326,41.2499975 219,41.75 C220.466674,42.2500025 221.816661,42.8166635 223.05,43.45 C224.28334,44.0833365 225.299996,44.799996 226.1,45.6 C226.900004,46.333337 227.366666,47.4499925 227.5,48.95 C227.633334,50.4500075 227.533335,52.099991 227.2,53.9 C226.866665,55.700009 226.350004,57.5499905 225.65,59.45 C224.949996,61.3500095 224.166671,63.066659 223.3,64.6 C222.433329,66.133341 221.500005,67.399995 220.5,68.4 C219.499995,69.400005 218.566671,69.9 217.7,69.9 C216.233326,69.9 215.000005,69.5500035 214,68.85 C212.999995,68.1499965 212.200003,67.300005 211.6,66.3 C210.999997,65.299995 210.550002,64.2500055 210.25,63.15 C209.949998,62.0499945 209.766667,61.100004 209.7,60.3 C209.499999,56.766649 209.466666,53.633347 209.6,50.9 C209.733334,48.166653 209.966665,45.900009 210.3,44.1 C210.099999,43.766665 209.900001,43.466668 209.7,43.2 C209.499999,42.933332 209.300001,42.6833345 209.1,42.45 C208.899999,42.2166655 208.666668,42.000001 208.4,41.8 C208.666668,41.666666 208.933332,41.466668 209.2,41.2 C209.733336,40.799998 210.099999,40.400002 210.3,40 Z M213.9,63.8 C214.100001,64.066668 214.366665,64.3499985 214.7,64.65 C215.033335,64.9500015 215.449997,65.1833325 215.95,65.35 C216.450003,65.5166675 216.966664,65.533334 217.5,65.4 C218.033336,65.266666 218.599997,64.900003 219.2,64.3 C220.800008,62.633325 221.999996,60.9166755 222.8,59.15 C223.600004,57.3833245 224.116666,55.7166745 224.35,54.15 C224.583335,52.5833255 224.550002,51.200006 224.25,50 C223.949998,48.799994 223.46667,47.933336 222.8,47.4 C222.266664,47.066665 221.816668,46.7833345 221.45,46.55 C221.083331,46.3166655 220.61667,46.100001 220.05,45.9 C219.483331,45.699999 218.766671,45.4833345 217.9,45.25 C217.033329,45.0166655 215.900007,44.700002 214.5,44.3 C213.83333,46.433344 213.366668,48.566656 213.1,50.7 C212.833332,52.833344 212.716667,54.7833245 212.75,56.55 C212.783334,58.3166755 212.916666,59.8499935 213.15,61.15 C213.383334,62.4500065 213.633332,63.333331 213.9,63.8 Z M234.7,49.3 C234.7,49.500001 234.799999,50.433325 235,52.1 C235.200001,53.766675 235.433332,55.799988 235.7,58.2 C235.966668,60.600012 236.283332,63.1833195 236.65,65.95 C237.016669,68.7166805 237.349999,71.3499875 237.65,73.85 C237.950002,76.3500125 238.233332,78.5499905 238.5,80.45 C238.766668,82.3500095 238.933333,83.566664 239,84.1 C238.599998,84.033333 238.266668,83.966667 238,83.9 C237.733332,83.833333 237.466668,83.666668 237.2,83.4 C236.933332,83.133332 236.616669,82.7500025 236.25,82.25 C235.883332,81.7499975 235.36667,81.033338 234.7,80.1 C233.833329,73.966636 233.150003,68.6166895 232.65,64.05 C232.149998,59.4833105 231.733335,55.766681 231.4,52.9 C230.199994,54.500008 229.333336,55.566664 228.8,56.1 C228.266664,56.633336 227.933334,56.9 227.8,56.9 C227.599999,56.9 227.566666,56.600003 227.7,56 L227.9,55 C227.966667,54.666665 228.033333,54.366668 228.1,54.1 C228.166667,53.833332 228.266666,53.600001 228.4,53.4 C228.866669,52.73333 229.283332,52.06667 229.65,51.4 C230.016669,50.73333 230.299999,50.133336 230.5,49.6 C230.766668,48.93333 230.966666,48.300003 231.1,47.7 C231.033333,46.966663 230.983334,46.333336 230.95,45.8 C230.916667,45.266664 230.9,44.7166695 230.9,44.15 C230.9,43.5833305 230.883334,43.000003 230.85,42.4 C230.816666,41.799997 230.8,41.033338 230.8,40.1 L230.8,30.25 C230.8,28.0833225 230.833333,25.800012 230.9,23.4 C230.966667,20.999988 231.05,18.7166775 231.15,16.55 C231.25,14.3833225 231.383332,12.4166755 231.55,10.65 C231.716668,8.8833245 231.899999,7.533338 232.1,6.6 C232.566669,4.666657 233.283329,3.1833385 234.25,2.15 C235.216672,1.1166615 236.233328,0.5166675 237.3,0.35 C238.366672,0.1833325 239.416662,0.4499965 240.45,1.15 C241.483339,1.8500035 242.266664,2.933326 242.8,4.4 C243.400003,5.866674 243.7,7.766655 243.7,10.1 C243.7,12.433345 243.500002,14.9833195 243.1,17.75 C242.699998,20.5166805 242.150004,23.399985 241.45,26.4 C240.749997,29.400015 240.000004,32.3166525 239.2,35.15 C238.399996,37.9833475 237.600004,40.633321 236.8,43.1 C235.999996,45.566679 235.300003,47.633325 234.7,49.3 Z M233.9,43.6 C235.566675,38.733309 236.933328,33.9500235 238,29.25 C239.066672,24.5499765 239.849998,20.333352 240.35,16.6 C240.850003,12.866648 241.016668,9.8500115 240.85,7.55 C240.683333,5.2499885 240.200004,4.066667 239.4,4 C238.133327,3.533331 237.133337,3.96666 236.4,5.3 C235.666663,6.63334 235.083336,8.499988 234.65,10.9 C234.216665,13.300012 233.933334,16.0499845 233.8,19.15 C233.666666,22.2500155 233.616667,25.333318 233.65,28.4 C233.683334,31.466682 233.733333,34.366653 233.8,37.1 C233.866667,39.833347 233.9,41.999992 233.9,43.6 Z M242.3,36.3 C242.3,35.699997 242.466665,35.3500005 242.8,35.25 C243.133335,35.1499995 243.483332,35.166666 243.85,35.3 C244.216669,35.433334 244.583332,35.6499985 244.95,35.95 C245.316668,36.2500015 245.566666,36.466666 245.7,36.6 C245.833334,38.333342 245.766668,40.699985 245.5,43.7 C245.233332,46.700015 245.1,50.433311 245.1,54.9 C245.366668,53.833328 245.766664,52.566674 246.3,51.1 C246.833336,49.633326 247.449996,48.1500075 248.15,46.65 C248.850004,45.1499925 249.616663,43.7500065 250.45,42.45 C251.283338,41.1499935 252.099996,40.1166705 252.9,39.35 C253.700004,38.5833295 254.466663,38.2 255.2,38.2 C255.933337,38.2 256.599997,38.766661 257.2,39.9 C257.333334,40.233335 257.449999,40.9166615 257.55,41.95 C257.65,42.9833385 257.716667,44.233326 257.75,45.7 C257.783333,47.166674 257.833333,48.799991 257.9,50.6 C257.966667,52.400009 258.066666,54.233324 258.2,56.1 C258.800003,54.633326 259.48333,53.0166755 260.25,51.25 C261.01667,49.4833245 261.833329,47.8833405 262.7,46.45 C263.566671,45.0166595 264.499995,43.900004 265.5,43.1 C266.500005,42.299996 267.566661,42.133331 268.7,42.6 C269.233336,42.800001 269.599999,43.4166615 269.8,44.45 C270.000001,45.4833385 270.166666,46.699993 270.3,48.1 C270.433334,49.500007 270.583332,50.9833255 270.75,52.55 C270.916667,54.1166745 271.233331,55.533327 271.7,56.8 C272.166669,58.066673 272.833329,59.0833295 273.7,59.85 C274.566671,60.6166705 275.733326,60.900001 277.2,60.7 C278.000004,60.7 278.583332,60.7166665 278.95,60.75 C279.316668,60.7833335 279.583332,60.833333 279.75,60.9 C279.916667,60.966667 279.983333,61.066666 279.95,61.2 C279.916666,61.333334 279.9,61.533332 279.9,61.8 C277.433321,63.066673 275.416674,63.4833355 273.85,63.05 C272.283325,62.6166645 271.050004,61.6833405 270.15,60.25 C269.249996,58.8166595 268.616669,57.0833435 268.25,55.05 C267.883331,53.0166565 267.633334,51.00001 267.5,49 C267.366666,48.133329 267.083336,47.766666 266.65,47.9 C266.216664,48.033334 265.683336,48.533329 265.05,49.4 C264.416663,50.266671 263.733337,51.3499935 263,52.65 C262.266663,53.9500065 261.56667,55.333326 260.9,56.8 C260.23333,58.266674 259.650002,59.6833265 259.15,61.05 C258.649997,62.4166735 258.266668,63.533329 258,64.4 C257.666665,65.000003 257.133337,65.166668 256.4,64.9 C255.666663,64.633332 255.200001,64.133337 255,63.4 C254.733332,62.333328 254.583333,61.0166745 254.55,59.45 C254.516667,57.8833255 254.516667,56.300008 254.55,54.7 C254.583333,53.099992 254.633333,51.5500075 254.7,50.05 C254.766667,48.5499925 254.766667,47.266672 254.7,46.2 C254.633333,45.133328 254.500001,44.400002 254.3,44 C254.099999,43.599998 253.733336,43.699997 253.2,44.3 C252.066661,46.033342 251.016672,47.999989 250.05,50.2 C249.083328,52.400011 248.233337,54.6833215 247.5,57.05 C246.766663,59.4166785 246.150003,61.7833215 245.65,64.15 C245.149998,66.5166785 244.833334,68.666657 244.7,70.6 C243.566661,70.866668 242.766669,70.7166695 242.3,70.15 C241.833331,69.5833305 241.433335,69.000003 241.1,68.4 C241.233334,67.533329 241.349999,65.8500125 241.45,63.35 C241.550001,60.8499875 241.65,58.000016 241.75,54.8 C241.850001,51.599984 241.95,48.33335 242.05,45 C242.150001,41.66665 242.233333,38.766679 242.3,36.3 Z M300.1,40.6 C300.033333,41.000002 299.883334,41.833327 299.65,43.1 C299.416665,44.366673 299.166668,45.8499915 298.9,47.55 C298.633332,49.2500085 298.400001,51.033324 298.2,52.9 C297.999999,54.766676 297.883333,56.533325 297.85,58.2 C297.816666,59.866675 297.916665,61.2833275 298.15,62.45 C298.383334,63.6166725 298.766664,64.333332 299.3,64.6 C300.833341,65.333337 302.399992,65.0833395 304,63.85 C305.600008,62.6166605 307.466656,60.733346 309.6,58.2 C309.800001,58.2 309.816667,58.466664 309.65,59 C309.483332,59.533336 309.216668,60.1166635 308.85,60.75 L307.75,62.65 C307.383331,63.2833365 307.100001,63.699999 306.9,63.9 C306.366664,64.56667 305.600005,65.3166625 304.6,66.15 C303.599995,66.9833375 302.533339,67.6499975 301.4,68.15 C300.266661,68.6500025 299.183338,68.866667 298.15,68.8 C297.116661,68.733333 296.26667,68.133339 295.6,67 C295.266665,66.199996 295.066667,65.2166725 295,64.05 C294.933333,62.8833275 294.933333,61.700006 295,60.5 C295.066667,59.299994 295.166666,58.200005 295.3,57.2 C295.433334,56.199995 295.533333,55.466669 295.6,55 C294.199993,57.600013 292.600009,60.066655 290.8,62.4 C288.999991,64.733345 287.233342,66.56666 285.5,67.9 C283.766658,69.23334 282.166674,69.9499995 280.7,70.05 C279.233326,70.1500005 278.100004,69.300009 277.3,67.5 C276.833331,65.766658 276.833331,63.8166775 277.3,61.65 C277.766669,59.4833225 278.466662,57.533342 279.4,55.8 C280.800007,53.399988 282.266659,51.20001 283.8,49.2 C285.333341,47.19999 286.966658,45.500007 288.7,44.1 C290.433342,42.699993 292.24999,41.6833365 294.15,41.05 C296.050009,40.4166635 298.033323,40.266665 300.1,40.6 Z M281.3,66 C281.96667,66.133334 283.033326,65.633339 284.5,64.5 C285.966674,63.366661 287.499992,61.7833435 289.1,59.75 C290.700008,57.7166565 292.149993,55.3500135 293.45,52.65 C294.750007,49.9499865 295.599998,47.100015 296,44.1 L294.85,44.1 C294.349998,44.1 293.76667,44.299998 293.1,44.7 C290.566654,46.366675 288.400009,48.3166555 286.6,50.55 C284.799991,52.7833445 283.400005,54.9499895 282.4,57.05 C281.399995,59.1500105 280.800001,61.033325 280.6,62.7 C280.399999,64.366675 280.63333,65.466664 281.3,66 Z M310.6,38.4 C310.533333,37.799997 310.849997,37.6499985 311.55,37.95 C312.250004,38.2500015 312.966663,38.566665 313.7,38.9 C313.966668,40.433341 314.166666,41.6499955 314.3,42.55 C314.433334,43.4500045 314.533333,44.299996 314.6,45.1 C314.666667,45.900004 314.733333,46.766662 314.8,47.7 C314.866667,48.633338 314.966666,49.866659 315.1,51.4 C315.700003,49.866659 316.433329,48.4500065 317.3,47.15 C318.166671,45.8499935 319.283327,44.733338 320.65,43.8 C322.016674,42.866662 323.649991,42.1833355 325.55,41.75 C327.45001,41.3166645 329.73332,41.166666 332.4,41.3 C332.4,41.833336 332.216669,42.2833315 331.85,42.65 C331.483332,43.0166685 330.63334,43.299999 329.3,43.5 C327.366657,43.833335 325.683341,44.4833285 324.25,45.45 C322.81666,46.4166715 321.583339,47.533327 320.55,48.8 C319.516662,50.066673 318.683337,51.4166595 318.05,52.85 C317.416664,54.2833405 316.900002,55.599994 316.5,56.8 C316.433333,57.400003 316.350001,58.2499945 316.25,59.35 C316.15,60.4500055 316.083334,61.6166605 316.05,62.85 C316.016667,64.0833395 315.983334,65.2833275 315.95,66.45 C315.916667,67.6166725 315.966666,68.53333 316.1,69.2 C316.166667,69.533335 316.016669,69.7833325 315.65,69.95 C315.283332,70.1166675 314.866669,70.233333 314.4,70.3 C313.933331,70.366667 313.500002,70.333334 313.1,70.2 C312.699998,70.066666 312.5,69.833335 312.5,69.5 C312.633334,62.633299 312.450003,56.7166915 311.95,51.75 C311.449998,46.7833085 311.000002,42.333353 310.6,38.4 Z M350.2,40.6 C350.133333,41.000002 349.983335,41.833327 349.75,43.1 C349.516666,44.366673 349.266668,45.8499915 349,47.55 C348.733332,49.2500085 348.500001,51.033324 348.3,52.9 C348.099999,54.766676 347.983334,56.533325 347.95,58.2 C347.916667,59.866675 348.016666,61.2833275 348.25,62.45 C348.483335,63.6166725 348.866664,64.333332 349.4,64.6 C350.933341,65.333337 352.499992,65.0833395 354.1,63.85 C355.700008,62.6166605 357.566656,60.733346 359.7,58.2 C359.900001,58.2 359.916668,58.466664 359.75,59 C359.583333,59.533336 359.316669,60.1166635 358.95,60.75 L357.85,62.65 C357.483332,63.2833365 357.200001,63.699999 357,63.9 C356.466664,64.56667 355.700005,65.3166625 354.7,66.15 C353.699995,66.9833375 352.633339,67.6499975 351.5,68.15 C350.366661,68.6500025 349.283339,68.866667 348.25,68.8 C347.216662,68.733333 346.36667,68.133339 345.7,67 C345.366665,66.199996 345.166667,65.2166725 345.1,64.05 C345.033333,62.8833275 345.033333,61.700006 345.1,60.5 C345.166667,59.299994 345.266666,58.200005 345.4,57.2 C345.533334,56.199995 345.633333,55.466669 345.7,55 C344.299993,57.600013 342.700009,60.066655 340.9,62.4 C339.099991,64.733345 337.333342,66.56666 335.6,67.9 C333.866658,69.23334 332.266674,69.9499995 330.8,70.05 C329.333326,70.1500005 328.200004,69.300009 327.4,67.5 C326.933331,65.766658 326.933331,63.8166775 327.4,61.65 C327.866669,59.4833225 328.566662,57.533342 329.5,55.8 C330.900007,53.399988 332.366659,51.20001 333.9,49.2 C335.433341,47.19999 337.066658,45.500007 338.8,44.1 C340.533342,42.699993 342.349991,41.6833365 344.25,41.05 C346.15001,40.4166635 348.133323,40.266665 350.2,40.6 Z M331.4,66 C332.06667,66.133334 333.133326,65.633339 334.6,64.5 C336.066674,63.366661 337.599992,61.7833435 339.2,59.75 C340.800008,57.7166565 342.249994,55.3500135 343.55,52.65 C344.850007,49.9499865 345.699998,47.100015 346.1,44.1 L344.95,44.1 C344.449998,44.1 343.86667,44.299998 343.2,44.7 C340.666654,46.366675 338.500009,48.3166555 336.7,50.55 C334.899991,52.7833445 333.500005,54.9499895 332.5,57.05 C331.499995,59.1500105 330.900001,61.033325 330.7,62.7 C330.499999,64.366675 330.73333,65.466664 331.4,66 Z M362.303715,59.4178188 C362.328496,59.1120516 362.477256,58.4894502 362.75,57.55 C363.050002,56.5166615 363.466664,55.33334 364,54 C364.533336,52.66666 365.116664,51.2500075 365.75,49.75 C366.383337,48.2499925 367.066663,46.9166725 367.8,45.75 C368.533337,44.5833275 369.28333,43.66667 370.05,43 C370.816671,42.33333 371.53333,42.133332 372.2,42.4 C373.666674,43.06667 374.699997,44.033327 375.3,45.3 C375.900003,46.566673 376.333332,48.0166585 376.6,49.65 C376.866668,51.2833415 377.133332,53.09999 377.4,55.1 C377.666668,57.10001 378.266662,59.199989 379.2,61.4 C379.6,62.4 380.18333,63.133331 380.95,63.6 C381.716671,64.066669 382.449997,64.399999 383.15,64.6 C383.850004,64.800001 384.416665,64.9166665 384.85,64.95 C385.283336,64.9833335 385.433334,65.099999 385.3,65.3 C383.633325,66.566673 382.200006,67.000002 381,66.6 C379.799994,66.199998 378.783338,65.3166735 377.95,63.95 C377.116663,62.5833265 376.433336,60.9500095 375.9,59.05 C375.366664,57.1499905 374.883336,55.3166755 374.45,53.55 C374.016665,51.7833245 373.633335,50.2833395 373.3,49.05 C372.966665,47.8166605 372.600002,47.2 372.2,47.2 C371.599997,47.266667 370.950004,47.833328 370.25,48.9 C369.549997,49.966672 368.833337,51.299992 368.1,52.9 C367.366663,54.500008 366.66667,56.2499905 366,58.15 C365.33333,60.0500095 364.71667,61.833325 364.15,63.5 C363.583331,65.166675 363.133335,66.599994 362.8,67.8 C362.466665,69.000006 362.266667,69.733332 362.2,70 C361.199995,70 360.583335,70.033333 360.35,70.1 C360.116666,70.166667 359.733336,69.833337 359.2,69.1 C359.533335,63.233304 359.650001,57.6833595 359.55,52.45 C359.45,47.2166405 359.300001,42.666686 359.1,38.8 C359.1,38.199997 359.249999,37.9 359.55,37.9 C359.850002,37.9 360.183332,38.033332 360.55,38.3 C360.916669,38.566668 361.299998,38.833332 361.7,39.1 C362.100002,39.366668 362.433332,39.5 362.7,39.5 C362.7,41.366676 362.683334,43.233324 362.65,45.1 C362.616667,46.966676 362.583334,48.766658 362.55,50.5 C362.516667,52.233342 362.483334,53.866659 362.45,55.4 C362.417353,56.9017812 362.368718,58.2436654 362.304095,59.4256912 L362.303715,59.4178188 Z M395.4,38.5 C397.066675,38.766668 398.449995,39.133331 399.55,39.6 C400.650006,40.066669 401.516664,40.5833305 402.15,41.15 C402.783337,41.7166695 403.283332,42.299997 403.65,42.9 C404.016669,43.500003 404.366665,44.066664 404.7,44.6 C404.633333,44.866668 404.316669,44.833335 403.75,44.5 C403.183331,44.166665 402.633336,43.833335 402.1,43.5 C400.633326,42.566662 398.866677,42.000001 396.8,41.8 C394.733323,41.599999 392.816676,41.7166645 391.05,42.15 C389.283325,42.5833355 387.866672,43.333328 386.8,44.4 C385.733328,45.466672 385.466664,46.766659 386,48.3 C386.533336,49.833341 387.483327,51.166661 388.85,52.3 C390.216674,53.433339 391.733325,54.4499955 393.4,55.35 C395.066675,56.2500045 396.733325,57.066663 398.4,57.8 C400.066675,58.533337 401.433328,59.266663 402.5,60 C403.83334,59.266663 404.966662,58.6500025 405.9,58.15 C406.833338,57.6499975 407.666663,57.1833355 408.4,56.75 C409.133337,56.3166645 409.88333,55.9166685 410.65,55.55 C411.416671,55.1833315 412.299995,54.766669 413.3,54.3 C413.433334,54.233333 413.55,54.2 413.65,54.2 C413.750001,54.2 413.750001,54.2833325 413.65,54.45 C413.55,54.6166675 413.283336,54.8833315 412.85,55.25 C412.416665,55.6166685 411.733338,56.13333 410.8,56.8 C410.333331,57.133335 409.466673,57.699996 408.2,58.5 C406.933327,59.300004 405.566674,60.166662 404.1,61.1 C404.900004,61.833337 405.533331,62.599996 406,63.4 C406.400002,64.133337 406.683333,64.9166625 406.85,65.75 C407.016668,66.5833375 406.866669,67.433329 406.4,68.3 C405.06666,70.433344 403.566675,72.099994 401.9,73.3 C400.233325,74.500006 398.700007,75.333331 397.3,75.8 C396.366662,76.133335 395.333339,76.166668 394.2,75.9 C393.066661,75.633332 392.16667,75.100004 391.5,74.3 C390.766663,73.233328 390.583332,72.1500055 390.95,71.05 C391.316669,69.9499945 391.933329,68.8833385 392.8,67.85 C393.666671,66.8166615 394.666661,65.833338 395.8,64.9 C396.933339,63.966662 397.933329,63.133337 398.8,62.4 C398.199997,61.73333 397.033342,60.9166715 395.3,59.95 C393.566658,58.9833285 391.783343,57.9166725 389.95,56.75 C388.116658,55.5833275 386.466674,54.33334 385,53 C383.533326,51.66666 382.733334,50.33334 382.6,49 C382.333332,47.533326 382.516664,46.1166735 383.15,44.75 C383.783337,43.3833265 384.716661,42.1833385 385.95,41.15 C387.18334,40.1166615 388.616659,39.3500025 390.25,38.85 C391.883342,38.3499975 393.599991,38.233332 395.4,38.5 Z M394.5,72.8 C395.233337,73.133335 396.066662,73.133335 397,72.8 C397.933338,72.466665 398.816663,71.9833365 399.65,71.35 C400.483338,70.7166635 401.216664,70.0166705 401.85,69.25 C402.483337,68.4833295 402.899999,67.800003 403.1,67.2 C403.300001,66.666664 403.11667,66.0833365 402.55,65.45 C401.983331,64.8166635 401.400003,64.300002 400.8,63.9 C400.066663,64.433336 399.233338,65.1166625 398.3,65.95 C397.366662,66.7833375 396.550004,67.633329 395.85,68.5 C395.149996,69.366671 394.633335,70.199996 394.3,71 C393.966665,71.800004 394.033331,72.399998 394.5,72.8 Z" id="PieterWolmarans" fill="currentColor" fill-rule="nonzero"></path>
    </g>
</svg>